<svg xmlns="http://www.w3.org/2000/svg" viewBox="0 0 400 300" fill="none">
  <rect width="400" height="300" rx="16" fill="#FFECEC"/>
  <circle cx="200" cy="132" r="78" fill="#fff" stroke="#F7C9CB" stroke-width="4"/>

  <!-- containers -->
  <rect x="108" y="118" width="56" height="68" rx="12" fill="#FABE00"/>
  <rect x="172" y="108" width="56" height="78" rx="12" fill="#FABE00"/>
  <rect x="236" y="118" width="56" height="68" rx="12" fill="#FABE00"/>

  <!-- cartoon seals -->
  <circle cx="136" cy="150" r="18" fill="#E62D32"/>
  <circle cx="200" cy="142" r="18" fill="#E62D32"/>
  <circle cx="264" cy="150" r="18" fill="#E62D32"/>
  <path d="M128 150h16M192 142h16M256 150h16M136 142v16M200 134v16M264 142v16" stroke="#fff" stroke-width="3" stroke-linecap="round"/>
  <rect x="126" y="146" width="20" height="8" rx="4" fill="#fff"/>
  <rect x="190" y="138" width="20" height="8" rx="4" fill="#fff"/>
  <rect x="254" y="146" width="20" height="8" rx="4" fill="#fff"/>

  <!-- lock mascot -->
  <rect x="178" y="58" width="44" height="50" rx="12" fill="#E62D32"/>
  <path d="M188 58 V48a12 12 0 0 1 24 0v10" stroke="#E62D32" stroke-width="8" stroke-linecap="round"/>
  <circle cx="200" cy="82" r="7" fill="#fff"/>
  <rect x="197" y="82" width="6" height="12" rx="3" fill="#fff"/>
  <circle cx="194" cy="74" r="2" fill="#233255"/>
  <circle cx="206" cy="74" r="2" fill="#233255"/>
  <path d="M194 78c3 3 9 3 12 0" stroke="#233255" stroke-width="2" stroke-linecap="round"/>

  <!-- sparkles -->
  <path d="M92 84l6 12 12 6-12 6-6 12-6-12-12-6 12-6z" fill="#FABE00"/>
  <path d="M308 92l5 10 10 5-10 5-5 10-5-10-10-5 10-5z" fill="#FABE00"/>

  <rect x="18" y="248" width="110" height="34" rx="17" fill="#E62D32"/>
  <text x="73" y="270" text-anchor="middle" font-family="Inter,Arial,sans-serif" font-size="15" font-weight="700" fill="#fff">Пломбы</text>
</svg>
