<svg xmlns="http://www.w3.org/2000/svg" viewBox="0 0 400 300" fill="none">
  <rect width="400" height="300" rx="16" fill="#E9F9EE"/>
  <path d="M0 210 C80 170 140 240 220 205 C300 170 340 220 400 195 L400 300 L0 300Z" fill="#8ED6A8"/>
  <path d="M0 235 C90 215 150 255 250 230 C320 212 360 245 400 225 L400 300 L0 300Z" fill="#2D9B4E"/>

  <circle cx="320" cy="58" r="34" fill="#FFE08A"/>
  <path d="M40 70 C70 40 110 48 130 72 C95 62 65 78 40 70Z" fill="#fff" opacity="0.85"/>
  <path d="M300 88 C330 70 360 78 372 95 C345 86 320 92 300 88Z" fill="#fff" opacity="0.75"/>

  <!-- road -->
  <path d="M0 228 H400" stroke="#D7E6DA" stroke-width="18" stroke-linecap="round"/>
  <path d="M30 228 H370" stroke="#fff" stroke-width="4" stroke-dasharray="18 16" stroke-linecap="round"/>

  <!-- cartoon truck -->
  <rect x="118" y="146" width="164" height="62" rx="16" fill="#5082E6"/>
  <path d="M86 146h44v62H98a24 24 0 1 1-48 0H70v-62h16z" fill="#6B9BF0"/>
  <rect x="104" y="160" width="42" height="28" rx="8" fill="#D9E8FF"/>
  <rect x="170" y="156" width="92" height="36" rx="8" fill="#3D6FCC"/>
  <rect x="182" y="164" width="24" height="18" rx="4" fill="#FABE00"/>
  <rect x="214" y="164" width="24" height="18" rx="4" fill="#E62D32"/>
  <rect x="246" y="164" width="24" height="18" rx="4" fill="#2D9B4E"/>
  <circle cx="98" cy="214" r="20" fill="#233255"/>
  <circle cx="98" cy="214" r="9" fill="#B8C7E6"/>
  <circle cx="248" cy="214" r="20" fill="#233255"/>
  <circle cx="248" cy="214" r="9" fill="#B8C7E6"/>

  <!-- motion lines -->
  <path d="M44 182 H74 M44 198 H68 M44 214 H76" stroke="#5082E6" stroke-width="4" stroke-linecap="round" opacity="0.5"/>

  <!-- tiny trees -->
  <path d="M34 206 L44 176 L54 206Z" fill="#2D9B4E"/>
  <rect x="41" y="206" width="6" height="14" fill="#8B5E3C"/>
  <path d="M338 202 L350 168 L362 202Z" fill="#2D9B4E"/>
  <rect x="347" y="202" width="6" height="14" fill="#8B5E3C"/>

  <rect x="18" y="248" width="180" height="34" rx="17" fill="#2D9B4E"/>
  <text x="108" y="270" text-anchor="middle" font-family="Inter,Arial,sans-serif" font-size="15" font-weight="700" fill="#fff">Транспортирование</text>
</svg>
