<svg xmlns="http://www.w3.org/2000/svg" viewBox="0 0 400 300" fill="none">
  <rect width="400" height="300" rx="16" fill="#FFF6DD"/>
  <rect x="220" y="48" width="140" height="170" rx="18" fill="#E7EDF8"/>
  <rect x="236" y="72" width="108" height="18" rx="9" fill="#C9D6F2"/>
  <rect x="236" y="104" width="88" height="88" rx="12" fill="#fff" stroke="#C9D6F2" stroke-width="4"/>
  <path d="M252 150h76M252 166h60" stroke="#E2E8F3" stroke-width="6" stroke-linecap="round"/>

  <!-- building -->
  <rect x="52" y="86" width="150" height="132" rx="14" fill="#FABE00"/>
  <rect x="72" y="108" width="36" height="36" rx="6" fill="#FFE89A"/>
  <rect x="124" y="108" width="36" height="36" rx="6" fill="#FFE89A"/>
  <rect x="98" y="156" width="54" height="62" rx="8" fill="#F29F05"/>
  <path d="M78 86 L127 52 L176 86Z" fill="#E62D32"/>

  <!-- ramp -->
  <path d="M150 218 L250 178 L250 218Z" fill="#D8DEEA"/>

  <!-- containers sliding down -->
  <rect x="168" y="132" width="46" height="54" rx="10" fill="#2D9B4E" transform="rotate(12 191 159)"/>
  <rect x="198" y="154" width="40" height="48" rx="10" fill="#5082E6" transform="rotate(18 218 178)"/>

  <!-- cartoon worker -->
  <circle cx="286" cy="214" r="20" fill="#FFD6A8"/>
  <path d="M268 214c0-16 9-24 18-24s18 8 18 24" fill="#5A3E2B"/>
  <rect x="266" y="228" width="40" height="34" rx="14" fill="#E62D32"/>
  <path d="M250 236l14 8M302 236l-14 8" stroke="#FFD6A8" stroke-width="9" stroke-linecap="round"/>
  <path d="M232 220l16-8 8 10-14 10z" fill="#FFD6A8"/>
  <circle cx="280" cy="212" r="2.5" fill="#233255"/>
  <circle cx="292" cy="212" r="2.5" fill="#233255"/>
  <path d="M280 220c3 3 9 3 12 0" stroke="#233255" stroke-width="2" stroke-linecap="round"/>

  <rect x="18" y="248" width="140" height="34" rx="17" fill="#FABE00"/>
  <text x="88" y="270" text-anchor="middle" font-family="Inter,Arial,sans-serif" font-size="15" font-weight="700" fill="#233255">Разгрузка</text>
</svg>
